<svg xmlns="http://www.w3.org/2000/svg" viewBox="0 0 87 87"><path style="stroke:none;fill-rule:nonzero;fill:#fbbc04;fill-opacity:1" d="M21.75 19.773c12.012 0 21.75 9.739 21.75 21.75V43.5H1.977A1.974 1.974 0 0 1 0 41.523c0-12.011 9.738-21.75 21.75-21.75Zm0 0"/><path style="stroke:none;fill-rule:nonzero;fill:#ea4335;fill-opacity:1" d="M67.227 21.75c0 12.012-9.739 21.75-21.75 21.75H43.5V1.977C43.5.883 44.383 0 45.477 0c12.011 0 21.75 9.738 21.75 21.75Zm0 0"/><path style="stroke:none;fill-rule:nonzero;fill:#4285f4;fill-opacity:1" d="M65.25 67.227c-12.012 0-21.75-9.739-21.75-21.75V43.5h41.523c1.094 0 1.977.883 1.977 1.977 0 12.011-9.738 21.75-21.75 21.75Zm0 0"/><path style="stroke:none;fill-rule:nonzero;fill:#34a853;fill-opacity:1" d="M19.773 65.25c0-12.012 9.739-21.75 21.75-21.75H43.5v41.523A1.974 1.974 0 0 1 41.523 87c-12.011 0-21.75-9.738-21.75-21.75Zm0 0"/></svg>