<?xml version="1.0" encoding="UTF-8"?>
<svg xmlns="http://www.w3.org/2000/svg" xmlns:xlink="http://www.w3.org/1999/xlink" width="87px" height="87px" viewBox="0 0 87 87" version="1.1">
<g id="surface1">
<path style=" stroke:none;fill-rule:nonzero;fill:rgb(100%,100%,100%);fill-opacity:1;" d="M 43.289062 1.261719 C 20.03125 1.261719 1.300781 20.140625 1.300781 43.550781 C 1.300781 66.8125 20.179688 85.542969 43.289062 85.542969 C 66.550781 85.542969 85.28125 66.660156 85.28125 43.550781 C 85.28125 20.292969 66.398438 1.261719 43.289062 1.261719 Z M 43.289062 79.199219 C 23.445312 79.199219 7.34375 63.128906 7.34375 43.25 C 7.34375 23.371094 23.414062 7.300781 43.289062 7.300781 C 63.136719 7.300781 79.238281 23.371094 79.238281 43.25 C 79.238281 63.097656 63.167969 79.199219 43.289062 79.199219 Z M 43.289062 13.042969 C 26.644531 13.042969 13.144531 26.542969 13.144531 43.191406 C 13.144531 59.835938 26.644531 73.335938 43.289062 73.335938 C 59.933594 73.335938 73.4375 59.835938 73.4375 43.191406 C 73.4375 26.542969 59.933594 13.042969 43.289062 13.042969 Z M 58.183594 23.917969 C 60.808594 23.917969 62.925781 26.042969 62.925781 28.660156 C 62.925781 31.285156 60.800781 33.402344 58.183594 33.402344 C 55.566406 33.402344 53.441406 31.273438 53.441406 28.660156 C 53.441406 26.035156 55.566406 23.917969 58.183594 23.917969 Z M 43.289062 17.875 C 45.914062 17.875 48.035156 20 48.035156 22.617188 C 48.035156 25.242188 45.90625 27.359375 43.289062 27.359375 C 40.675781 27.359375 38.546875 25.234375 38.546875 22.617188 C 38.546875 19.992188 40.675781 17.875 43.289062 17.875 Z M 28.578125 23.917969 C 31.203125 23.917969 33.320312 26.042969 33.320312 28.660156 C 33.320312 31.285156 31.195312 33.402344 28.578125 33.402344 C 25.964844 33.402344 23.835938 31.273438 23.835938 28.660156 C 23.835938 26.035156 25.964844 23.917969 28.578125 23.917969 Z M 18.007812 43.191406 C 18.007812 40.5625 20.132812 38.445312 22.75 38.445312 C 25.363281 38.445312 27.492188 40.574219 27.492188 43.191406 C 27.492188 45.816406 25.363281 47.933594 22.75 47.933594 C 20.125 47.933594 18.007812 45.804688 18.007812 43.191406 Z M 28.578125 63.007812 C 25.953125 63.007812 23.835938 60.878906 23.835938 58.261719 C 23.835938 55.648438 25.964844 53.519531 28.578125 53.519531 C 31.195312 53.519531 33.320312 55.648438 33.320312 58.261719 C 33.320312 60.878906 31.195312 63.007812 28.578125 63.007812 Z M 43.289062 69.257812 C 40.664062 69.257812 38.546875 67.132812 38.546875 64.515625 C 38.546875 61.890625 40.675781 59.773438 43.289062 59.773438 C 45.914062 59.773438 48.035156 61.902344 48.035156 64.515625 C 48.035156 67.136719 45.90625 69.257812 43.289062 69.257812 Z M 43.289062 55.0625 C 36.886719 55.0625 31.660156 49.867188 31.660156 43.429688 C 31.660156 37.027344 36.855469 31.800781 43.289062 31.800781 C 49.695312 31.800781 54.921875 36.996094 54.921875 43.429688 C 54.921875 49.835938 49.726562 55.0625 43.289062 55.0625 Z M 58.183594 63.007812 C 55.558594 63.007812 53.441406 60.878906 53.441406 58.261719 C 53.441406 55.648438 55.566406 53.519531 58.183594 53.519531 C 60.800781 53.519531 62.925781 55.648438 62.925781 58.261719 C 62.925781 60.878906 60.800781 63.007812 58.183594 63.007812 Z M 63.800781 47.933594 C 61.175781 47.933594 59.058594 45.804688 59.058594 43.191406 C 59.058594 40.5625 61.1875 38.445312 63.800781 38.445312 C 66.417969 38.445312 68.542969 40.574219 68.542969 43.191406 C 68.542969 45.816406 66.417969 47.933594 63.800781 47.933594 Z M 63.800781 47.933594 "/>
</g>
</svg>
