<svg xmlns="http://www.w3.org/2000/svg" viewBox="0.85 0.04 48.23 49.85"><path fill="#656766" d="M35.308 46.143H14.692a1.682 1.682 0 0 1 0-3.363h20.616a1.682 1.682 0 1 1 0 3.363z"/><path fill="#656766" d="M26.682 44.281V34.153a1.682 1.682 0 1 0-3.364 0v10.128h3.364z"/><path fill="#FFC966" d="M48.176 32.286V8.849c0-2.059-1.67-3.728-3.729-3.728H25.518A3.729 3.729 0 0 1 22.513 3.6l-.792-1.079A3.729 3.729 0 0 0 18.716 1H5.553a3.729 3.729 0 0 0-3.73 3.729v27.557c0 2.059 1.67 3.728 3.73 3.728h38.894c2.06 0 3.729-1.669 3.729-3.728z"/><path d="M15.038 18.384a.514.514 0 0 0-.192.417c0 .174.079.311.234.413.157.103.518.224 1.084.363s1.005.348 1.317.627c.313.279.47.685.47 1.22 0 .535-.201.967-.602 1.3-.4.333-.928.5-1.581.5-.944 0-1.795-.35-2.551-1.05l.793-.972c.643.563 1.237.844 1.783.844.244 0 .436-.053.575-.157a.508.508 0 0 0 .21-.427.5.5 0 0 0-.222-.427c-.148-.104-.441-.21-.879-.32-.694-.164-1.201-.378-1.522-.643-.321-.264-.482-.68-.482-1.245s.203-1.003.61-1.31c.406-.307.913-.46 1.522-.46.398 0 .796.069 1.194.204.398.137.745.33 1.04.58l-.673.973c-.518-.393-1.052-.589-1.604-.589-.221 0-.396.053-.524.159zm8.994-1.19v1.168h-2.764v1.288h2.628v1.168h-2.628v2.337h-1.33v-5.962h4.094zm4.503 1.15v4.811h-1.33v-4.81h-1.69v-1.152h4.708v1.152h-1.688zm7.62-.618c.418.356.627.902.627 1.638s-.215 1.275-.644 1.617c-.429.34-1.084.51-1.965.51h-.794v1.664h-1.33v-5.962h2.106c.916 0 1.582.178 2 .533zm-.976 2.346c.159-.18.239-.44.239-.785 0-.343-.104-.588-.311-.734-.208-.144-.53-.217-.969-.217h-.76v2.004h.897c.443 0 .745-.09.904-.268z" fill="#FFF"/><circle cx="25" cy="44.461" r="4.539" fill="#EC6E62"/></svg>