<svg xmlns="http://www.w3.org/2000/svg" viewBox="-5.38 58.88 266.5 146.25"><path d="M32.32 64a5.213 5.213 0 0 0-3.54 2.44c-.76 1.3-.94 2.86-.46 4.28 0 0 .8 3.98.48 5.12-.28.98-.54 2.4-1.12 4.96-.58 2.56-1.46 5.94-2.4 10.08-1.88 8.28-4.26 19.32-6.88 31.04-5.24 23.42-11.18 49.82-14.24 63.36v.16c-.74 4.12-2.4 5.12-2.4 5.12a5.164 5.164 0 0 0-1.52 5.74c.76 2.04 2.7 3.4 4.88 3.38h49.12c11.16 0 21.58-4.48 30.72-11.84-.74 2.84-1.44 5.44-1.44 5.44-.38 1.56-.02 3.2.98 4.46 1 1.26 2.54 1.98 4.14 1.94h24a5.156 5.156 0 0 0 4.96-3.84l5.28-21.28h24.16l5.12 21.28c.6 2.26 2.62 3.82 4.96 3.84h26.72c.94.46 2 .64 3.04.48h32.32a5.17 5.17 0 0 0 4.42-2.78 5.19 5.19 0 0 0-.26-5.22s-.66-1.16-1.44-2.88c-.76-1.66-1.3-3.52-1.28-4.16v-.16c.42-2.8 2.28-10.4 2.4-10.88l.16-.32c.1-.34 7.26-23.46 14.56-47.04 3.68-11.88 7.28-23.76 10.08-32.8 1.4-4.52 2.68-8.32 3.52-11.04.82-2.64 1.34-4.5 1.28-4.32-.04.04-.06.02 0-.16.18-.22.7-.88 1.12-1.44.6-.82 1.12-1.44 1.12-1.44 1.3-1.54 1.56-3.7.7-5.52a5.115 5.115 0 0 0-4.7-2.96h-27.2c-2.18.1-4.06 1.56-4.7 3.62-.64 2.08.08 4.34 1.82 5.66l.16.16c-.22.72-.46 1.58-.8 2.72-.7 2.28-1.64 5.44-2.72 9.12-2.16 7.36-4.92 16.86-7.68 26.4-2.78 9.66-3.4 12.08-5.44 19.2l-15.04-63.36a5.169 5.169 0 0 0-4.96-4h-65.6a7.68 7.68 0 0 0-.96 0c-1.78.34-3.26 1.6-3.88 3.3-.62 1.7-.3 3.6.84 5.02 0-.02.1-.1 0 .48-.02.1-1.62 6.44-2.24 8.8a39.612 39.612 0 0 0-15.84-15.2c-5.36-2.8-10.42-4.08-13.92-4.64-1.2-.18-1.94-.1-2.72-.16-.32-.02-.88-.14-1.12-.16h-.16c-.3-.04-.3 0-.32 0H33.28a7.68 7.68 0 0 0-.96 0zm6.56 10.24h40c.54.04 1.2.16 2.24.32 2.68.42 6.66 1.4 10.72 3.52 8.1 4.24 16.64 12.3 16.64 32.48 0 20.64-6.68 40.74-16.96 55.36-.18.2-.34.42-.48.64-10.22 14.22-23.62 22.88-36.8 22.88h-40.8c.24-.74.64-1.08.8-1.92.02-.06-.02-.1 0-.16 3.08-13.62 9-39.84 14.24-63.2 2.62-11.72 5-22.78 6.88-31.04.94-4.14 1.82-7.56 2.4-10.08.58-2.52.98-4.4.96-4.32.5-1.72.18-3 .16-4.48zm86.08 2.56h22.56c.04.26-.06.22 0 .48.24 1.2.34 1.22.64 2.24.3 1.02.76 2.44 1.28 4.16 1.04 3.42 2.42 8.16 4.16 13.76 3.48 11.22 8.06 25.86 12.64 40.48 8.1 25.88 14.42 45.96 16.16 51.52h-21.12L156 168.32a5.169 5.169 0 0 0-4.96-4h-32.32a5.169 5.169 0 0 0-4.96 4l-5.12 21.12H95.36c.94-3.62 1.8-7.56 4.8-18.08 11.42-16.44 18.72-38.14 18.72-60.8 0-2.86-.16-5.62-.48-8.16.12-.26.24-.52.32-.8 3.58-14.3 6.08-24 6.08-24 .06-.16.12-.32.16-.48.02-.12-.02-.2 0-.32zm33.12 0h22.24l18.4 78.56c.5 2.36 2.56 4.08 4.98 4.12 2.42.04 4.54-1.62 5.1-3.96 0 0 5.38-18.86 10.88-37.92 2.76-9.54 5.52-19.08 7.68-26.4 1.08-3.66 1.88-6.74 2.56-8.96.34-1.12.6-2.1.8-2.72.06-.18.08-.3.16-.48.28-.54.24-.5.16-.32.08-.46-.08-.94 0-1.44h11.2c-.24.76-.34 1.06-.8 2.56-.84 2.72-1.96 6.52-3.36 11.04-2.8 9.04-6.56 20.92-10.24 32.8-7.36 23.74-14.72 47.36-14.72 47.36v.32s-2.1 7.76-2.72 12.16v.16c-.28 2.54.64 4.32 1.28 6.24h-18.24c-.88-2.78-8.6-27.32-17.28-55.04-4.58-14.62-9.16-29.44-12.64-40.64-1.74-5.6-3.28-10.2-4.32-13.6-.5-1.64-.84-2.88-1.12-3.84zm-98.24 5.12c-1.96.4-3.52 1.9-4 3.84L34.4 174.88c-.38 1.54-.04 3.16.94 4.4a5.167 5.167 0 0 0 4.02 2h14.4c5.74 0 10.62-3.22 14.88-7.52 4.26-4.3 8.14-10.02 11.52-16.48 6.76-12.9 11.52-28.76 11.52-43.04 0-13.94-3.64-22.46-8.64-27.2-5-4.74-10.84-5.12-12.96-5.12h-9.12c-.38-.04-.74-.04-1.12 0zm5.12 10.24h5.12c.96 0 3.5.1 5.92 2.4s5.44 7.5 5.44 19.68c0 11.84-4.52 26.7-10.56 38.24-3.02 5.76-6.38 10.68-9.6 13.92-3.22 3.24-6.08 4.64-7.52 4.64h-7.84zm69.76 14.72c-.22.04-.44.1-.64.16a5.157 5.157 0 0 0-3.84 3.36l-13.28 39.52c-.5 1.58-.22 3.3.78 4.62a5.082 5.082 0 0 0 4.18 2.1h24.96c1.62 0 3.14-.76 4.1-2.06.98-1.28 1.3-2.94.86-4.5l-11.68-39.36a5.162 5.162 0 0 0-5.44-3.84zm.16 22.24L140 146.4h-11.04z" fill="#fff" text-anchor="none"/></svg>